<svg width="230" height="60" viewBox="0 0 230 60" fill="none" xmlns="http://www.w3.org/2000/svg">
<g clip-path="url(#clip0_104_2)">
<path d="M35.3341 14.1309C34.4805 14.1309 33.666 14.2852 32.8838 14.5869C32.1016 14.8887 31.4219 15.3296 30.8447 15.9092C30.2676 16.4888 29.8291 17.1636 29.5293 17.9336C29.2295 18.7036 29.0796 19.5234 29.0796 20.3931V20.5898H35.146C36.1543 20.5898 37.0425 20.2695 37.8105 19.629C38.5786 18.9884 39.1118 18.1514 39.4102 17.1172C39.728 16.083 39.7896 14.9775 39.5947 13.8018C39.3999 12.626 38.9556 11.5205 38.2617 10.4863C37.5874 9.45215 36.7168 8.59473 35.65 7.91406C34.583 7.2334 33.373 6.76172 32.0205 6.5C30.668 6.23828 29.2441 6.19531 27.749 6.37109C26.2539 6.54688 24.8047 6.92871 23.3936 7.51758C21.9824 8.10645 20.6631 8.88965 19.4355 9.86719C18.208 10.8447 17.126 11.9863 16.1895 13.292C15.2529 14.5977 14.5044 16.0352 13.9434 17.6045C13.3823 19.1738 13.0537 20.8467 12.957 22.6221C12.8604 24.3975 13.0029 26.2227 13.3848 28.0977C13.7666 29.9727 14.3799 31.8477 15.2246 33.7227C16.0693 35.5977 17.126 37.3916 18.3945 39.1045C19.6631 40.8174 21.1279 42.3984 22.7881 43.8477C24.4482 45.2969 26.2734 46.5742 28.2637 47.6797C30.2539 48.7852 32.3857 49.6875 34.6592 50.3867C36.9326 51.0859 39.3105 51.5498 41.792 51.7783C44.2734 52.0068 46.8047 51.9854 49.3857 51.7148C51.9668 51.4443 54.5312 50.918 57.0791 50.1357C59.627 49.3535 62.0879 48.3281 64.4619 47.0596C66.8359 45.791 69.0645 44.2969 71.1465 42.5771C71.3428 42.4141 71.5039 42.2383 71.6299 42.0498C71.7559 41.8613 71.8428 41.667 71.8906 41.4668C71.9385 41.2666 71.9473 41.0576 71.917 40.8398C71.8867 40.6221 71.8135 40.417 71.6973 40.2246C71.5811 40.0322 71.4297 39.8652 71.2432 39.7236C71.0566 39.582 70.8457 39.4795 70.6104 39.416C70.375 39.3525 70.1226 39.332 69.8535 39.3545C69.5845 39.377 69.3164 39.4424 69.0498 39.5508C66.9287 40.4102 64.8955 41.1562 62.9492 41.7891C61.0029 42.4219 59.1279 42.9346 57.3242 43.3262C55.5205 43.7178 53.7715 43.9795 52.0762 44.1113C50.3809 44.2432 48.7207 44.2383 47.0957 44.0967C45.4707 43.9551 43.8955 43.6748 42.3691 43.2559C40.8428 42.8369 39.3877 42.2861 37.9941 41.5957C36.6006 40.9053 35.2949 40.0957 34.0771 39.1562C32.8594 38.2168 31.7441 37.168 30.7305 35.999C29.7168 34.8301 28.8281 33.5664 28.0645 32.208C27.3008 30.8496 26.6875 29.4209 26.2246 27.9219C25.7617 26.4229 25.4648 24.8789 25.334 23.2891C25.2031 21.6992 25.2441 20.084 25.457 18.4434C25.6699 16.8027 26.0518 15.1826 26.6025 13.583C27.1533 11.9834 27.8652 10.4492 28.7383 8.98047C29.6113 7.51172 30.6299 6.15137 31.7939 4.89941C32.958 3.64746 34.252 2.54102 35.6758 1.58008C36.0947 1.28809 36.5537 1.05469 37.0527 0.880859C37.5518 0.707031 38.0781 0.600586 38.6318 0.561523C39.1855 0.522461 39.748 0.554688 40.3193 0.658203C40.8906 0.761719 41.4531 0.932617 42.0068 1.1709C42.5605 1.40918 43.0869 1.709 43.5859 2.07031C44.085 2.43164 44.5391 2.8457 44.9482 3.3125C45.3574 3.7793 45.7109 4.28906 46.0088 4.8418C46.3066 5.39453 46.5381 5.97422 46.7031 6.58008C46.8682 7.18594 46.9619 7.80469 46.9844 8.43652C47.0068 9.06836 46.958 9.69727 46.8389 10.3232C46.7197 10.9492 46.5293 11.5596 46.2676 12.1543C45.5879 13.623 44.5117 14.7871 43.0391 15.6465C41.5664 16.5059 39.8281 16.9795 37.8242 17.0674H35.146L35.3341 14.1309Z" fill="#F38020"/>
</g>
<path d="M101.81 38.219V13.319H107.33V38.219H101.81Z" fill="black"/>
<path d="M115.438 38.219H109.918V13.319H115.438V18.219H123.598V13.319H129.118V38.219H123.598V23.719H115.438V38.219Z" fill="black"/>
<path d="M148.533 38.219H132.453V33.219H142.953V13.319H148.533V38.219Z" fill="black"/>
<path d="M163.221 38.219H157.701V13.319H163.221V18.219H171.381V13.319H176.901V38.219H171.381V23.719H163.221V38.219Z" fill="black"/>
<path d="M197.869 38.219L190.909 25.719L183.949 38.219H177.649L187.429 22.219L177.829 6.519H184.429L190.909 18.019L197.389 6.519H203.989L194.389 22.219L204.169 38.219H197.869Z" fill="black"/>
<defs>
<clipPath id="clip0_104_2">
<rect width="59" height="59" fill="white" transform="translate(12.957)"/>
</clipPath>
</defs>
</svg>
